/* XPM */
static char *magick[] = {
/* columns rows colors chars-per-pixel */
"32 32 4 1",
"  c gray0",
". c #dadab6",
"X c white",
"o c None",
/* pixels */
"..  ..  oo..  oooooo..oooooooo..",
"..  ..  oo..  oooooo..oooooooo..",
"oo..ooXXXXXXXXooXX..  oooo....  ",
"oo..ooXXXXXXXXooXX..  oooo....  ",
"....XXooXX..ooXX  oooo....  oooo",
"....XXooXX..ooXX  oooo....  oooo",
"ooXXoooo....ooXXooXX..  oooooooo",
"ooXXoooo....ooXXooXX..  oooooooo",
"ooXXoo..ooooooXX..  oooooooooooo",
"ooXXoo..ooooooXX..  oooooooooooo",
"..XX..oo..ooXX  oooooooooooooooo",
"..XX..oo..ooXX  oooooooooooooooo",
"oo..XXXXXXXX  oooooooooooooooooo",
"oo..XXXXXXXX  oooooooooooooooooo",
"oooo..ooXX  oooooooooooooooooooo",
"oooo..ooXX  oooooooooooooooooooo",
"oo..  oo..  oooooooooooooooooooo",
"oo..  oo..  oooooooooooooooooooo",
"oo....XX  oooooooooooooooooooooo",
"oo....XX  oooooooooooooooooooooo",
"..  oo..  oooooooooooooooooooooo",
"..  oo..  oooooooooooooooooooooo",
"oooo..  oooooooooooooooooooooooo",
"oooo..  oooooooooooooooooooooooo",
"oooo..  oooooooooooooooooooooooo",
"oooo..  oooooooooooooooooooooooo",
"oo..  oooooooooooooooooooooooooo",
"oo..  oooooooooooooooooooooooooo",
"oo..  oooooooooooooooooooooooooo",
"oo..  oooooooooooooooooooooooooo",
"..  oooooooooooooooooooooooooooo",
"..  oooooooooooooooooooooooooooo"
};
